HIERARCHY
ROOT Hips
{
	OFFSET 0.00000 0.00000 0.00000
	CHANNELS 6 Xposition Yposition Zposition Zrotation Yrotation Xrotation 
	JOINT LHipJoint
	{
		OFFSET 0 0 0
		CHANNELS 3 Zrotation Yrotation Xrotation
		JOINT LeftHip
		{
			OFFSET 1.56741 -1.82513 0.67319
			CHANNELS 3 Zrotation Yrotation Xrotation
			JOINT LeftKnee
			{
				OFFSET 2.35708 -6.47604 0.00000
				CHANNELS 3 Zrotation Yrotation Xrotation
				JOINT LeftAnkle
				{
					OFFSET 2.70636 -7.43567 0.00000
					CHANNELS 3 Zrotation Yrotation Xrotation
					JOINT LeftToe
					{
						OFFSET 0.20427 -0.56122 2.08535
						CHANNELS 3 Zrotation Yrotation Xrotation
						End Site
						{
							OFFSET 0.00000 -0.00000 1.08535
						}
					}
				}
			}
		}
	}
	JOINT RHipJoint
	{
		OFFSET 0 0 0
		CHANNELS 3 Zrotation Yrotation Xrotation
		JOINT RightHip
		{
			OFFSET -1.51422 -1.82513 0.67319
			CHANNELS 3 Zrotation Yrotation Xrotation
			JOINT RightKnee
			{
				OFFSET -2.48824 -6.83638 0.00000
				CHANNELS 3 Zrotation Yrotation Xrotation
				JOINT RightAnkle
				{
					OFFSET -2.70033 -7.41909 0.00000
					CHANNELS 3 Zrotation Yrotation Xrotation
					JOINT RightToe
					{
						OFFSET -0.19750 -0.54263 2.22151
						CHANNELS 3 Zrotation Yrotation Xrotation
						End Site
						{
							OFFSET -0.00000 -0.00000 1.14915
						}
					}
				}
			}
		}
	}
	JOINT lowerback
	{
		OFFSET 0 0 0
		CHANNELS 3 Zrotation Yrotation Xrotation
		JOINT Chest
		{
			OFFSET -0.01567 2.12874 -0.15842
			CHANNELS 3 Zrotation Yrotation Xrotation
			JOINT Chest2
			{
				OFFSET 0.06098 2.13326 -0.01043
				CHANNELS 3 Zrotation Yrotation Xrotation
				JOINT lowerneck
				{
					OFFSET 0 0 0
					CHANNELS 3 Zrotation Yrotation Xrotation
					JOINT Neck
					{
						OFFSET -0.05040 1.78432 0.13387
						CHANNELS 3 Zrotation Yrotation Xrotation
						JOINT Head
						{
							OFFSET -0.00180 1.76880 -0.33303
							CHANNELS 3 Zrotation Yrotation Xrotation
							End Site
							{
								OFFSET 0.00734 1.81249 -0.12719
							}
						}
					}
				}
				JOINT LeftCollar
				{
					OFFSET 0 0 0
					CHANNELS 3 Zrotation Yrotation Xrotation
					JOINT LeftShoulder
					{
						OFFSET 3.72199 0.94188 -0.54317
CHANNELS 3 Zrotation Xrotation Yrotation
						JOINT LeftElbow
						{
OFFSET 0 -5.146010 0.000000
CHANNELS 3 Zrotation Xrotation Yrotation
							JOINT LeftWrist
							{
OFFSET 0 -3.644520 -0.000000
CHANNELS 3 Zrotation Xrotation Yrotation
								JOINT lhand
								{
									OFFSET 0 0 0
CHANNELS 3 Zrotation Xrotation Yrotation
									JOINT LFingers
									{
OFFSET 0 -0.562280 0.000000
CHANNELS 3 Zrotation Xrotation Yrotation
										End Site
										{
OFFSET 0 -0.453320 0.000000
										}
									}
								}
								JOINT LThumb
								{
OFFSET 0 0.000000 0.000000
CHANNELS 3 Zrotation Xrotation Yrotation
									End Site
									{
OFFSET 0 -0.460250 0.460250
									}
								}
							}
						}
					}
				}
				JOINT RightCollar
				{
					OFFSET 0 0 0
					CHANNELS 3 Zrotation Yrotation Xrotation
					JOINT RightShoulder
					{
						OFFSET -3.30253 1.22679 -0.46941
CHANNELS 3 Zrotation Xrotation Yrotation
						JOINT RightElbow
						{
OFFSET 0 -5.339130 0.000000
CHANNELS 3 Zrotation Xrotation Yrotation
							JOINT RightWrist
							{
OFFSET 0 -3.564780 -0.000000
CHANNELS 3 Zrotation Xrotation Yrotation
								JOINT rhand
								{
									OFFSET 0 0 0
CHANNELS 3 Zrotation Xrotation Yrotation
									JOINT RFingers
									{
OFFSET 0 -0.857470 0.000000
CHANNELS 3 Zrotation Xrotation Yrotation
										End Site
										{
OFFSET 0 -0.691320 0.000000
										}
									}
								}
								JOINT RThumb
								{
OFFSET 0 0.000000 0.000000
CHANNELS 3 Zrotation Xrotation Yrotation
									End Site
									{
OFFSET 0 -0.701870 0.701870
									}
								}
							}
						}
					}
				}
			}
		}
	}
}
MOTION
Frames: 5
Frame Time: 0.008333333333333333
-7.867500 17.626300 -13.713700 -3.598300 -12.751300 2.756600 0.000000 0.000000 0.000000 -5.823000 -5.169000 -32.074400 5.639200 14.069400 43.516100 -0.006900 -1.598000 -0.083500 1.961700 -8.785900 -25.127900 0.000000 0.000000 0.000000 31.316600 3.368500 -5.639600 -2.266100 -9.399600 27.053600 -0.731700 -5.281600 -18.927600 -0.444800 -4.279300 11.863900 3.401900 0.125400 8.151000 4.196700 0.506000 2.808700 2.379800 0.237900 -1.669800 -3.788200 3.320400 -13.591300 -5.756700 7.156700 25.357000 -0.483800 2.222100 10.498600 -0.000000 0.000000 0.000000 -3.135100 -5.599800 -36.475400 17.447000 -27.443300 4.291300 19.535500 9.623200 -27.172900 0.000000 0.000000 0.000000 -7.125000 0.000000 0.000000 -12.018500 58.150900 3.903800 -0.000000 0.000000 0.000000 -5.019900 -3.366800 21.362800 -17.195400 -27.114600 -4.176000 -11.676900 19.038900 -0.001000 0.000000 0.000000 0.000000 7.125000 0.000000 -0.000000 11.674800 29.871900 4.391100
-7.851749 17.745120 -13.430664 -2.632498 -12.990334 2.451525 0.000000 0.000000 0.000000 -4.368814 -5.261113 -34.769050 6.294775 14.707953 46.153411 -0.001300 -0.673362 0.024989 0.524591 -4.635565 -12.873157 0.000000 0.000000 0.000000 30.190596 3.331971 -3.668425 -2.037396 -8.943505 25.618827 -0.589702 -6.202418 -18.081812 -0.350194 -3.798215 10.510108 2.977606 0.928752 8.941471 2.907593 1.543942 3.025511 1.171498 0.758330 -1.875997 -4.123897 3.901020 -13.280209 -4.857762 7.803780 25.333303 -0.034931 2.606966 10.376224 0.000000 0.000000 0.000000 -1.445349 -3.548873 -34.747882 24.239997 -35.415575 7.845764 20.249468 3.415665 -21.653102 0.000000 0.000000 0.000000 -7.125000 0.000000 0.000000 -9.041342 52.624953 1.992566 0.000000 0.000000 0.000000 -4.647143 1.692272 28.829785 -24.295360 -35.470228 -7.879385 -10.930672 14.174713 -1.728556 0.000000 0.000000 0.000000 7.125000 0.000000 0.000000 12.051603 28.140363 5.046161
-7.749348 17.754132 -13.050804 -1.983659 -11.369769 3.182632 0.000000 0.000000 0.000000 -3.722466 -8.439423 -33.110705 4.193459 12.413104 37.210075 0.005587 -0.304125 -1.341976 1.266655 -7.133721 -20.112059 0.000000 0.000000 0.000000 29.030011 3.577282 -3.750199 -2.179831 -9.231038 26.520629 -0.583834 -7.192628 -18.816119 -0.198160 -2.866173 7.906397 2.807274 0.616063 8.854538 2.112114 1.092803 3.069343 0.492076 0.538711 -1.770884 -4.814530 4.196452 -13.211907 -4.406024 8.257431 25.277480 0.290772 2.808421 10.295066 0.000000 0.000000 0.000000 -1.034439 -1.277023 -33.887321 29.199765 -40.197335 10.889429 12.577524 -1.780365 -26.235130 0.000000 0.000000 0.000000 -7.125000 0.000000 0.000000 -18.691045 55.778154 5.070492 0.000000 0.000000 0.000000 -5.287324 5.058699 35.774608 -35.326068 -45.042978 -15.043801 -10.302408 9.264269 -3.958533 0.000000 0.000000 0.000000 7.125000 0.000000 0.000000 12.296229 25.923296 5.810365
-7.570019 17.633165 -12.529354 -2.493169 -10.216983 4.300214 0.000000 0.000000 0.000000 -3.838607 -10.023471 -29.930739 2.037582 8.943071 25.617949 -0.021808 4.248879 -5.113846 1.275734 -7.155512 -20.178008 0.000000 0.000000 0.000000 28.802703 2.827898 -3.232069 -2.182073 -9.235460 26.534721 -0.757519 -7.775792 -21.047542 -0.107754 -2.115899 5.826028 2.992889 0.401494 8.464601 2.245609 0.813290 2.987993 0.556945 0.400952 -1.641900 -4.831496 4.114815 -12.762463 -4.399750 8.140587 25.692493 0.272816 2.743309 10.359377 0.000000 0.000000 0.000000 -2.491514 0.065178 -33.965662 31.949112 -42.506543 12.706437 16.893055 -3.637307 -16.518765 0.000000 0.000000 0.000000 -7.125000 0.000000 0.000000 -10.390289 46.930312 0.500668 0.000000 0.000000 0.000000 -6.650635 4.882013 39.358429 -43.288711 -49.901596 -20.921491 -10.390064 5.833897 -7.268825 0.000000 0.000000 0.000000 7.125000 0.000000 0.000000 11.972676 22.624979 6.558923
-7.299805 17.458177 -11.947500 -3.608420 -8.500793 6.241688 0.000000 0.000000 0.000000 -4.765171 -10.838009 -30.464170 1.461355 7.640187 21.626281 -0.232562 9.940004 -9.119032 0.984674 -6.316093 -17.704304 0.000000 0.000000 0.000000 29.026302 2.239758 -3.266172 -2.156400 -9.184428 26.373991 -0.907538 -9.035509 -23.424493 -0.020261 -0.917340 2.521392 3.209081 0.140111 8.383373 2.934376 0.502580 2.838590 1.177989 0.242834 -1.758928 -4.579749 4.134333 -12.858554 -4.562404 8.118498 25.211061 0.170714 2.760673 10.218991 0.000000 0.000000 0.000000 -4.585709 -0.811796 -35.820641 32.607879 -43.026441 13.153771 12.370146 -4.925109 -25.530915 0.000000 0.000000 0.000000 -7.125000 0.000000 0.000000 -18.491238 55.068351 4.692359 0.000000 0.000000 0.000000 -6.802483 1.503315 38.609207 -44.202395 -50.371502 -21.622782 -10.178238 3.784081 -6.148219 0.000000 0.000000 0.000000 7.125000 0.000000 0.000000 12.195197 23.750949 6.390693
